HIERARCHY
ROOT Hips
{
  OFFSET 0.0 0.0 0.0
  CHANNELS 6 XPOSITION YPOSITION ZPOSITION ZROTATION XROTATION YROTATION 
  JOINT LeftUpLeg
  {
    OFFSET 0.089458 -0.0866707 0.00101652
    CHANNELS 3 ZROTATION XROTATION YROTATION 
    JOINT LeftLeg
    {
      OFFSET 0.0 -0.444227 0.013727
      CHANNELS 3 ZROTATION XROTATION YROTATION 
      JOINT LeftFoot
      {
        OFFSET -0.00253549 -0.420924 -0.0146059
        CHANNELS 3 ZROTATION XROTATION YROTATION 
        End Site
        {
          OFFSET -0.0004 -0.0441509 0.084991
        }
      }
    }
  }
  JOINT Spine
  {
    OFFSET 0.0 0.118905 0.0
    CHANNELS 3 ZROTATION XROTATION YROTATION 
    JOINT Spine1
    {
      OFFSET 0.0 0.256574 0.00127663
      CHANNELS 3 ZROTATION XROTATION YROTATION 
      End Site
      {
        OFFSET -0.0029 0.2150836 0.02525291
      }
      JOINT RightArm
      {
        OFFSET -0.162727 -0.05365632 0.00102123
        CHANNELS 3 ZROTATION XROTATION YROTATION 
        JOINT RightForeArm
        {
          OFFSET -0.26364 0.00099144 -0.0142434
          CHANNELS 3 ZROTATION XROTATION YROTATION 
          End Site
          {
            OFFSET -0.220324 0.00085362 0.0102216
          }
        }
      }
      JOINT LeftArm
      {
        OFFSET 0.162727 -0.0536563199 0.00102123
        CHANNELS 3 ZROTATION XROTATION YROTATION 
        JOINT LeftForeArm
        {
          OFFSET 0.262597 0.00099144 -0.0142434
          CHANNELS 3 ZROTATION XROTATION YROTATION 
          End Site
          {
            OFFSET 0.220902 0.00085362 0.0102216
          }
        }
      }
    }
  }
  JOINT RightUpLeg
  {
    OFFSET -0.089458 -0.0866707 0.00101652
    CHANNELS 3 ZROTATION XROTATION YROTATION 
    JOINT RightLeg
    {
      OFFSET 0.0 -0.444227 0.013727
      CHANNELS 3 ZROTATION XROTATION YROTATION 
      JOINT RightFoot
      {
        OFFSET 0.00253549 -0.420924 -0.0146059
        CHANNELS 3 ZROTATION XROTATION YROTATION 
        End Site
        {
          OFFSET 0.0004 -0.0441509 0.084991
        }
      }
    }
  }
}
MOTION
Frames: 9
Frame Time: 0.033333
-15.8813287822 0.952346188036 -1.24539784307 -6.36931319114 -5.47141396153 -90.7266116888 -6.82256966711 5.21110691453 8.72762425918 1.63741245551 18.2958911259 13.9844930143 1.93197813056 -45.3651465804 2.66998561991 -8.15540979354 16.8996843464 -2.62616590096 4.52957484433 -2.91399007259 -4.76868311859 62.2867831547 -20.2407208977 -27.4713008795 13.3060042202 46.7303272256 -2.0741709297 -63.7745417899 -14.1367089026 -47.2354811864 -2.40071949915 25.5074678139 -19.7099059162 -8.74461691606 -31.7654783768 -8.8558431316 -3.51230205072 67.7422396599 -19.3918769405 14.5168533261 -35.8762243137 -0.554867119173 
-15.9183087727 0.949746520923 -1.24952177331 -6.5761868145 -5.22665242508 -91.7035131552 -6.46465622865 8.80253094381 10.3078107218 1.4602086403 16.4648318151 13.5061390082 2.01436750087 -46.2157510188 2.73205432366 -8.39972566015 17.2534113057 -3.03962649317 5.30942876829 -3.00204295037 -5.3621053216 59.1163117948 -21.503216479 -32.6128692112 13.8145177803 46.8315369687 -4.01224180244 -62.5542123815 -14.7630133438 -51.8188898743 -0.811124664414 23.6734903048 -23.72729512 -8.45551123019 -32.7101208597 -8.88385715248 -2.74516444489 58.0864558718 -19.8120770085 14.6245978527 -36.8456433078 -0.448499836176 
-15.9579021232 0.943789967846 -1.25385841555 -6.89485057089 -4.95534108955 -92.7318527762 -6.21909513318 12.3892263477 11.7646183548 1.39725137162 15.3397032909 13.0513192727 1.45144934957 -47.6455008574 2.66553532478 -8.43652928072 17.4297906958 -3.30953230384 5.80969743631 -2.96286626596 -5.74198891729 56.2662343636 -22.6966878761 -36.7847453412 13.6657289395 45.7394750978 -4.89062462027 -63.1934292953 -16.2969867465 -55.5893933527 0.27019257189 23.5117172743 -27.5929089826 -8.05870541395 -32.7046737839 -8.81123687368 -2.21158345018 48.3412341716 -18.913830293 15.0185665791 -37.782926262 -0.302664998752 
-16.0008317642 0.933681669407 -1.25915122897 -7.44750764361 -4.7311542173 -93.6157680473 -5.98794061421 16.0910514203 12.9462649868 1.41837885427 15.0655548655 12.2481026867 -0.143385320813 -49.4049951537 2.30481916089 -8.43052298311 17.37587489 -3.45568746646 6.2324353464 -2.6302661489 -5.99639254642 54.3443352444 -23.4781981209 -39.5254338777 13.2564161931 44.2120433088 -4.84676242608 -64.3200894895 -17.3640450024 -58.2225815419 1.02663965101 23.6571080961 -31.1018606121 -7.42589863263 -32.0046135449 -8.53099335826 -1.81207095803 40.535331988 -17.5592125353 15.7562748208 -39.0356000312 0.00388712260527 
-16.0470298719 0.920531919186 -1.26625019715 -8.03129586481 -4.53585733771 -93.8853897648 -5.50326911005 19.7170929828 13.4598012973 1.61898898072 15.5453227207 11.1689336516 -2.27940381355 -50.5854294272 1.68203098642 -8.37645947451 16.9018648843 -3.62730429365 6.83766822715 -2.04999760956 -6.30243880898 53.5233157703 -23.921258832 -40.7002298301 12.9565597895 43.221624898 -4.47894051758 -65.0259690496 -17.4142605531 -59.3418856224 1.87619811005 24.0704643144 -34.0311579924 -6.5496054258 -30.6131025204 -8.09810365263 -1.43816708624 35.0182979124 -17.0174043643 16.2116623158 -39.9773328536 0.312964203649 
-16.0931163906 0.909870949105 -1.27434810301 -8.08942077464 -3.59161356703 -94.4872728646 -3.70733404704 21.0898841663 13.960437088 1.87959292751 19.6717729701 9.85509724585 -5.56278182895 -49.126774228 0.646852104851 -6.96776369405 16.3412446647 -3.72234424152 7.20398493272 -1.81411638625 -6.21727830286 54.0519177706 -24.9446943772 -38.75122169 13.0600448393 43.4288869884 -4.90737139034 -64.7801983527 -15.7494702448 -57.2751728324 2.63320398401 24.6629132155 -35.5054679851 -4.72405893142 -29.8966225066 -7.6364520204 -1.30043728212 33.8049592026 -16.6484631585 13.4549552781 -39.3146747305 0.178067767438 
-16.1386541037 0.907176870836 -1.28445382663 -7.53086327224 -2.08088308466 -95.8557832271 -0.611331652711 19.0742475309 14.4819613047 2.25265593898 29.0199028399 8.6098197177 -8.8074555102 -43.2815154118 -0.265699374634 -4.46066122381 16.1422693014 -3.69860165019 7.26525343712 -1.81735645723 -5.68062649779 56.1902382638 -27.1576381023 -33.0162704289 13.3983150806 44.2329402726 -6.14641679777 -63.7398717497 -12.2750093631 -52.3804065561 2.75305630159 24.8826540615 -34.9534213606 -1.87788175168 -29.8462225408 -6.4587617754 -1.21508264922 35.9791655097 -16.6250902512 8.38664328657 -38.249274503 -0.251045363852 
-16.184514268 0.907601663181 -1.2962216952 -6.24803549847 -1.03911477808 -96.8774497534 2.44636287861 14.3787417784 13.9240808448 3.09003734467 41.083925952 7.90332373297 -9.74630343143 -35.1873450943 -0.308007940911 -1.99733279564 16.0980762699 -3.84446162057 7.1640471091 -1.48768414345 -5.16033000758 59.9922698955 -29.9554475109 -24.9187464886 13.3352664582 44.1116258677 -6.73726231192 -61.9749781889 -6.90352491113 -47.1260444805 1.71999691309 23.9757312982 -32.2104412955 0.709255060985 -29.0378047657 -5.2892647692 -0.997260232623 37.7903779984 -17.4396842248 4.00376041504 -35.5853846135 -0.866499889501 
-16.2289944988 0.90571570236 -1.3060265456 -4.86774732853 -0.0733080068151 -97.3399423526 4.55378146164 7.90231457252 12.864799613 4.82994095082 53.4296670466 7.3721373599 -9.12565950948 -29.3554597885 0.196246342594 0.910694841969 15.9105926998 -3.9737007525 6.16175697576 -0.961803866868 -4.36481958249 65.3015876732 -32.1967877474 -15.1908717613 12.7373841416 42.385046253 -5.98619592777 -60.240048668 -0.131558621481 -42.4435297478 -0.525897672221 22.7001405367 -27.2043122 2.51610295202 -27.5191634302 -5.41404720269 -1.01069051897 38.6688871747 -17.6069897085 1.78522148441 -33.204459216 -1.26256366973 
